<?xml version="1.0" encoding="UTF-8"?>
<svg width="16" height="16" version="1.1" viewBox="0 0 4.23333 4.23333" xmlns="http://www.w3.org/2000/svg" xmlns:xlink="http://www.w3.org/1999/xlink">
 <style/>
 <defs>
  <linearGradient id="linearGradient6747" x1="2.64583" x2="5.82083" y1="6.35" y2="6.35" gradientTransform="matrix(3.52756 0 0 3.52756 -6.93333 -14.4)" gradientUnits="userSpaceOnUse">
   <stop stop-color="#6366f1" offset="0"/>
   <stop stop-color="#ec4899" offset=".5"/>
   <stop stop-color="#f59e0b" offset="1"/>
  </linearGradient>
 </defs>
 <g transform="translate(-2.11667 -4.23333)">
  <text x="-1.3363477" y="45.034912" fill="#000000" font-family="sans-serif" font-size="10.5833px" stroke-width=".264583" style="line-height:1.25" xml:space="preserve"><tspan x="-1.3363477" y="45.034912" stroke-width=".264583"/></text>
  <path transform="matrix(.264583 0 0 .264583 2.11667 4.23333)" d="m8 1a7 7 0 0 0-7 7 7 7 0 0 0 7 7 7 7 0 0 0 7-7 7 7 0 0 0-7-7zm-3.5625 3.16602 0.0820312 0.449219c-0.1875 0.0052082-0.337239 0.0494789-0.449219 0.132812-0.109374 0.0833335-0.191406 0.188802-0.246094 0.316406-0.0572952 0.130208-0.093753 0.276041-0.109375 0.4375-0.0156221 0.161459-0.0234376 0.321615-0.0234376 0.480469v0.664062c0 0.3125-0.0729164 0.587239-0.21875 0.824219-0.143229 0.234376-0.365885 0.41276-0.667969 0.535156 0.302084 0.119792 0.52474 0.298177 0.667969 0.535156 0.14323 0.234375 0.216146 0.50651 0.21875 0.816406v0.660156c1e-7 0.161459 0.0130208 0.321614 0.0390626 0.480469 0.0260417 0.161458 0.0716143 0.305989 0.136719 0.433594 0.0625 0.130208 0.145833 0.236979 0.25 0.320312 0.106771 0.083334 0.240885 0.127604 0.402344 0.132813l-0.0820312 0.449218c-0.252604-0.007813-0.471353-0.066406-0.65625-0.175781-0.184896-0.109374-0.338541-0.253905-0.460938-0.433594-0.117188-0.171874-0.20573-0.364581-0.265625-0.578125-0.0598954-0.210938-0.0898437-0.420573-0.0898437-0.628906v-0.660156c0-0.375002-0.0898425-0.647136-0.269531-0.816406-0.177084-0.16928-0.449218-0.255217-0.816406-0.257812v-0.566406c0.367188 0 0.639323-0.0833329 0.816406-0.25 0.179689-0.169271 0.269531-0.442708 0.269531-0.820312v-0.664062c0-0.210937 0.027344-0.42578 0.0820312-0.644531 0.0572926-0.221353 0.147135-0.419269 0.269531-0.59375 0.114583-0.166668 0.264322-0.302084 0.449219-0.40625 0.184896-0.106772 0.408854-0.164064 0.671875-0.171875zm7.07422 0c0.252604 0.0078126 0.468749 0.0611979 0.648437 0.160156 0.182292 0.0989586 0.332031 0.227864 0.449219 0.386719 0.132813 0.179688 0.227864 0.38151 0.285156 0.605469 0.059896 0.22396 0.089844 0.445314 0.089844 0.664062v0.664062c0 0.15625 0.014323 0.294271 0.042969 0.414062 0.03125 0.117188 0.076823 0.21875 0.136718 0.304688 0.08594 0.122396 0.204428 0.212239 0.355469 0.269531 0.153647 0.0546873 0.337241 0.0820313 0.550781 0.0820313v0.566406c-0.187499 0.0026054-0.351561 0.0260417-0.492187 0.0703125-0.138021 0.0416655-0.251302 0.108072-0.339844 0.199219-0.085939 0.0885417-0.14974 0.199219-0.191406 0.332031-0.041666 0.132813-0.0625 0.290365-0.0625 0.472656v0.660156c0 0.208333-0.028645 0.417968-0.085937 0.628906-0.057295 0.213541-0.145833 0.407551-0.265626 0.582032-0.122395 0.174478-0.27604 0.317707-0.460937 0.429687-0.184896 0.111972-0.404947 0.170566-0.660156 0.175781l-0.082031-0.449218c0.158853-0.005209 0.291665-0.049479 0.398437-0.132813 0.106772-0.083333 0.192707-0.190103 0.257813-0.320312 0.0625-0.127604 0.106771-0.272135 0.132812-0.433594 0.028646-0.158854 0.042969-0.31901 0.042969-0.480469v-0.660156c0-0.205728 0.029948-0.395832 0.089843-0.570312 0.062503-0.174479 0.157552-0.325521 0.285157-0.453125 0.067709-0.067709 0.143229-0.128906 0.226562-0.183594 0.085937-0.0546897 0.179687-0.102866 0.28125-0.144531-0.104166-0.0416655-0.200521-0.0911449-0.289062-0.148438-0.085939-0.0572926-0.161459-0.121094-0.226563-0.191406-0.125001-0.130208-0.217446-0.28125-0.277344-0.453125-0.059895-0.17448-0.089843-0.363282-0.089843-0.566406v-0.664062c0-0.158854-0.009127-0.31901-0.027344-0.480469-0.015625-0.161457-0.050782-0.30729-0.105469-0.4375-0.057292-0.127604-0.140625-0.233073-0.25-0.316406-0.109375-0.083326-0.257812-0.127597-0.445312-0.132812l0.078125-0.449219zm-3.46484 0.914062c0.283854 0 0.537759 0.0442708 0.761719 0.132812 0.223959 0.0859377 0.416666 0.208333 0.578125 0.367188 0.161459 0.161459 0.290364 0.354166 0.386719 0.578125 0.0989584 0.223959 0.164062 0.471356 0.195312 0.742188h-0.722656c-0.0234357-0.171876-0.0638012-0.332032-0.121094-0.480469-0.0572901-0.148437-0.134113-0.278645-0.230469-0.390625-0.0963527-0.11198-0.214843-0.199218-0.355469-0.261719-0.13802-0.0651036-0.302082-0.0976562-0.492188-0.0976562-0.171875 0-0.324219 0.0286449-0.457031 0.0859375-0.13021 0.0546872-0.242188 0.130207-0.335938 0.226562-0.0963552 0.0963552-0.177084 0.208333-0.242187 0.335938-0.0625009 0.127605-0.113281 0.263021-0.152344 0.40625-0.0390753 0.143229-0.0677202 0.290364-0.0859375 0.441406-0.015622 0.148437-0.0234375 0.292968-0.0234375 0.433594v0.800781c0 0.140625 0.0078155 0.286458 0.0234375 0.4375 0.0182299 0.148438 0.0468748 0.294271 0.0859375 0.4375 0.0390627 0.145834 0.0898429 0.282552 0.152344 0.410156 0.0624982 0.127604 0.141926 0.239583 0.238281 0.335937 0.0963528 0.098958 0.209634 0.177083 0.339844 0.234375 0.130207 0.054688 0.282551 0.082032 0.457031 0.082032 0.190105 0 0.354167-0.029949 0.492188-0.089844 0.140624-0.059896 0.259114-0.144532 0.355469-0.253906 0.0963529-0.10677 0.173176-0.233072 0.230469-0.378906 0.0572951-0.148438 0.0976606-0.308594 0.121094-0.480469h0.722656c-0.0338545 0.263021-0.101562 0.505208-0.203125 0.726562-0.101562 0.21875-0.233072 0.406249-0.394531 0.5625-0.164062 0.158854-0.358072 0.282552-0.582031 0.371094-0.221355 0.085936-0.46875 0.128906-0.742188 0.128906-0.234376 0-0.447917-0.032553-0.640625-0.097656-0.190105-0.067709-0.359375-0.160156-0.507812-0.277344-0.151042-0.117188-0.28125-0.255209-0.390625-0.414062-0.106772-0.158856-0.195313-0.332032-0.265625-0.519532-0.0729172-0.1875-0.127605-0.384114-0.164062-0.589844-0.033862-0.20573-0.0520922-0.414062-0.0546875-0.625v-0.792969c0.0026028-0.210938 0.020833-0.41927 0.0546875-0.625 0.0364573-0.20573 0.0911453-0.402344 0.164062-0.589844 0.0703118-0.187501 0.158853-0.360678 0.265625-0.519531 0.109374-0.161458 0.239582-0.300781 0.390625-0.417969 0.148437-0.117188 0.317707-0.208334 0.507812-0.273438 0.190105-0.067709 0.403646-0.101562 0.640625-0.101562z" fill="url(#linearGradient6747)" stroke-linejoin="round" stroke-width="3.73333" style="paint-order:fill markers stroke"/>
 </g>
</svg>
